<svg aria-hidden="true" style="position: absolute; width: 0; height: 0; overflow: hidden;" version="1.1" xmlns="http://www.w3.org/2000/svg" xmlns:xlink="http://www.w3.org/1999/xlink">
<defs>
<symbol id="icon-hero-scroll" viewBox="0 0 56 32">
<path d="M30.6 21.132c-0.664 0.668-1.584 1.081-2.6 1.081s-1.936-0.413-2.6-1.081l-0-0-16.8-16.828c-0.672-0.725-1.629-1.177-2.692-1.177-2.026 0-3.668 1.642-3.668 3.668 0 1.055 0.445 2.006 1.158 2.675l0.002 0.002 16.828 16.832c1.99 1.987 4.738 3.216 7.772 3.216s5.782-1.229 7.772-3.216l16.832-16.832c0.658-0.663 1.065-1.576 1.065-2.584 0-2.026-1.642-3.668-3.669-3.668-1.018 0-1.939 0.415-2.604 1.084l-0 0-16.792 16.828z"></path>
</symbol>
</defs>
</svg>
